<mxfile>
    <diagram id="OtsKJMUqoc6wZYfyTnpG" name="Page-1">
        <mxGraphModel dx="1051" dy="821" grid="1" gridSize="10" guides="1" tooltips="1" connect="1" arrows="1" fold="1" page="1" pageScale="1" pageWidth="1100" pageHeight="850" background="#1A1A1A" math="0" shadow="0">
            <root>
                <mxCell id="0"/>
                <mxCell id="1" parent="0"/>
                <mxCell id="76" style="edgeStyle=orthogonalEdgeStyle;rounded=0;orthogonalLoop=1;jettySize=auto;html=1;exitX=0;exitY=0;exitDx=0;exitDy=160;exitPerimeter=0;endArrow=none;endFill=0;fontColor=#FFFFFF;labelBackgroundColor=none;labelBorderColor=none;strokeColor=#FFFFFF;" edge="1" parent="1" source="9">
                    <mxGeometry relative="1" as="geometry">
                        <mxPoint x="384.7142857142858" y="774.9999999999998" as="targetPoint"/>
                    </mxGeometry>
                </mxCell>
                <mxCell id="77" value="&lt;font style=&quot;font-size: 14px&quot;&gt;Microphone Circuit&lt;/font&gt;" style="edgeLabel;html=1;align=center;verticalAlign=middle;resizable=0;points=[];rotation=-90;fontColor=#FFFFFF;labelBackgroundColor=none;labelBorderColor=none;" vertex="1" connectable="0" parent="76">
                    <mxGeometry x="-0.3138" y="7" relative="1" as="geometry">
                        <mxPoint x="-22" y="31.43" as="offset"/>
                    </mxGeometry>
                </mxCell>
                <mxCell id="9" value="&lt;h1&gt;Arduino Nano&lt;/h1&gt;" style="shadow=0;dashed=0;align=center;html=1;strokeWidth=1;shape=mxgraph.rtl.abstract.entity;container=1;collapsible=0;drawPins=1;leftArr=D13,3V3,REF,A0,A1,A2,A3,A4,A5,A6,A7,5V,RST,GND,VIN;rightArr=D12,D11,D10,D9,D8,D7,D6,D5,D4,D3,D2,GND,RST,RX0,RX1;left=15;right=15;topArr=1,2,3,4;top=USB;bottom=0;bottomArr=no pin:no,no pin:np,no pin:nopin,negated:n,negated:neg,negated:not;topRot=270;topAnchor=middle;bottomRot=0;rotation=0;rightRot=180;labelPadding=0;leftRot=0;leftAnchor=left;rightAnchor=right;bottomAnchor=middle;direction=north;pinSnap=20;fontColor=#FFFFFF;labelBackgroundColor=none;labelBorderColor=none;strokeColor=#FFFFFF;fillColor=none;" vertex="1" parent="1">
                    <mxGeometry x="225" y="455" width="650" height="150" as="geometry"/>
                </mxCell>
                <mxCell id="34" value="" style="group;fontColor=#FFFFFF;labelBackgroundColor=none;labelBorderColor=none;" vertex="1" connectable="0" parent="1">
                    <mxGeometry x="170" y="155" width="760" height="100" as="geometry"/>
                </mxCell>
                <mxCell id="8" value="R_LED&lt;br&gt;" style="verticalLabelPosition=bottom;shadow=0;dashed=0;align=center;html=1;verticalAlign=top;shape=mxgraph.electrical.opto_electronics.led_2;pointerEvents=1;rotation=-90;fontColor=#FFFFFF;labelBackgroundColor=none;labelBorderColor=none;strokeColor=#FFFFFF;fillColor=none;" vertex="1" parent="34">
                    <mxGeometry x="-20" y="20" width="100" height="60" as="geometry"/>
                </mxCell>
                <mxCell id="27" value="R_LED&lt;br&gt;" style="verticalLabelPosition=bottom;shadow=0;dashed=0;align=center;html=1;verticalAlign=top;shape=mxgraph.electrical.opto_electronics.led_2;pointerEvents=1;rotation=-90;fontColor=#FFFFFF;labelBackgroundColor=none;labelBorderColor=none;strokeColor=#FFFFFF;fillColor=none;" vertex="1" parent="34">
                    <mxGeometry x="80" y="20" width="100" height="60" as="geometry"/>
                </mxCell>
                <mxCell id="28" value="R_LED&lt;br&gt;" style="verticalLabelPosition=bottom;shadow=0;dashed=0;align=center;html=1;verticalAlign=top;shape=mxgraph.electrical.opto_electronics.led_2;pointerEvents=1;rotation=-90;fontColor=#FFFFFF;labelBackgroundColor=none;labelBorderColor=none;strokeColor=#FFFFFF;fillColor=none;" vertex="1" parent="34">
                    <mxGeometry x="180" y="20" width="100" height="60" as="geometry"/>
                </mxCell>
                <mxCell id="29" value="R_LED&lt;br&gt;" style="verticalLabelPosition=bottom;shadow=0;dashed=0;align=center;html=1;verticalAlign=top;shape=mxgraph.electrical.opto_electronics.led_2;pointerEvents=1;rotation=-90;fontColor=#FFFFFF;labelBackgroundColor=none;labelBorderColor=none;strokeColor=#FFFFFF;fillColor=none;" vertex="1" parent="34">
                    <mxGeometry x="280" y="20" width="100" height="60" as="geometry"/>
                </mxCell>
                <mxCell id="30" value="R_LED&lt;br&gt;" style="verticalLabelPosition=bottom;shadow=0;dashed=0;align=center;html=1;verticalAlign=top;shape=mxgraph.electrical.opto_electronics.led_2;pointerEvents=1;rotation=-90;fontColor=#FFFFFF;labelBackgroundColor=none;labelBorderColor=none;strokeColor=#FFFFFF;fillColor=none;" vertex="1" parent="34">
                    <mxGeometry x="380" y="20" width="100" height="60" as="geometry"/>
                </mxCell>
                <mxCell id="31" value="R_LED&lt;br&gt;" style="verticalLabelPosition=bottom;shadow=0;dashed=0;align=center;html=1;verticalAlign=top;shape=mxgraph.electrical.opto_electronics.led_2;pointerEvents=1;rotation=-90;fontColor=#FFFFFF;labelBackgroundColor=none;labelBorderColor=none;strokeColor=#FFFFFF;fillColor=none;" vertex="1" parent="34">
                    <mxGeometry x="480" y="20" width="100" height="60" as="geometry"/>
                </mxCell>
                <mxCell id="32" value="R_LED&lt;br&gt;" style="verticalLabelPosition=bottom;shadow=0;dashed=0;align=center;html=1;verticalAlign=top;shape=mxgraph.electrical.opto_electronics.led_2;pointerEvents=1;rotation=-90;fontColor=#FFFFFF;labelBackgroundColor=none;labelBorderColor=none;strokeColor=#FFFFFF;fillColor=none;" vertex="1" parent="34">
                    <mxGeometry x="580" y="20" width="100" height="60" as="geometry"/>
                </mxCell>
                <mxCell id="33" value="R_LED&lt;br&gt;" style="verticalLabelPosition=bottom;shadow=0;dashed=0;align=center;html=1;verticalAlign=top;shape=mxgraph.electrical.opto_electronics.led_2;pointerEvents=1;rotation=-90;fontColor=#FFFFFF;labelBackgroundColor=none;labelBorderColor=none;strokeColor=#FFFFFF;fillColor=none;" vertex="1" parent="34">
                    <mxGeometry x="680" y="20" width="100" height="60" as="geometry"/>
                </mxCell>
                <mxCell id="44" value="" style="group;fontColor=#FFFFFF;labelBackgroundColor=none;labelBorderColor=none;" vertex="1" connectable="0" parent="1">
                    <mxGeometry x="260" y="305" width="580" height="100" as="geometry"/>
                </mxCell>
                <mxCell id="35" value="&lt;font style=&quot;font-size: 14px&quot;&gt;R6&lt;/font&gt;" style="pointerEvents=1;verticalLabelPosition=bottom;shadow=0;dashed=0;align=center;html=1;verticalAlign=top;shape=mxgraph.electrical.resistors.resistor_2;rotation=-90;fontColor=#FFFFFF;labelBackgroundColor=none;labelBorderColor=none;fillColor=none;strokeColor=#FFFFFF;" vertex="1" parent="44">
                    <mxGeometry x="40" y="40" width="100" height="20" as="geometry"/>
                </mxCell>
                <mxCell id="36" value="&lt;font style=&quot;font-size: 14px&quot;&gt;R6&lt;/font&gt;" style="pointerEvents=1;verticalLabelPosition=bottom;shadow=0;dashed=0;align=center;html=1;verticalAlign=top;shape=mxgraph.electrical.resistors.resistor_2;rotation=-90;fontColor=#FFFFFF;labelBackgroundColor=none;labelBorderColor=none;fillColor=none;strokeColor=#FFFFFF;" vertex="1" parent="44">
                    <mxGeometry x="-40" y="40" width="100" height="20" as="geometry"/>
                </mxCell>
                <mxCell id="38" value="&lt;font style=&quot;font-size: 14px&quot;&gt;R6&lt;/font&gt;" style="pointerEvents=1;verticalLabelPosition=bottom;shadow=0;dashed=0;align=center;html=1;verticalAlign=top;shape=mxgraph.electrical.resistors.resistor_2;rotation=-90;fontColor=#FFFFFF;labelBackgroundColor=none;labelBorderColor=none;fillColor=none;strokeColor=#FFFFFF;" vertex="1" parent="44">
                    <mxGeometry x="120" y="40" width="100" height="20" as="geometry"/>
                </mxCell>
                <mxCell id="39" value="&lt;font style=&quot;font-size: 14px&quot;&gt;R6&lt;/font&gt;" style="pointerEvents=1;verticalLabelPosition=bottom;shadow=0;dashed=0;align=center;html=1;verticalAlign=top;shape=mxgraph.electrical.resistors.resistor_2;rotation=-90;fontColor=#FFFFFF;labelBackgroundColor=none;labelBorderColor=none;fillColor=none;strokeColor=#FFFFFF;" vertex="1" parent="44">
                    <mxGeometry x="200" y="40" width="100" height="20" as="geometry"/>
                </mxCell>
                <mxCell id="40" value="&lt;font style=&quot;font-size: 14px&quot;&gt;R6&lt;/font&gt;" style="pointerEvents=1;verticalLabelPosition=bottom;shadow=0;dashed=0;align=center;html=1;verticalAlign=top;shape=mxgraph.electrical.resistors.resistor_2;rotation=-90;fontColor=#FFFFFF;labelBackgroundColor=none;labelBorderColor=none;fillColor=none;strokeColor=#FFFFFF;" vertex="1" parent="44">
                    <mxGeometry x="280" y="40" width="100" height="20" as="geometry"/>
                </mxCell>
                <mxCell id="41" value="&lt;font style=&quot;font-size: 14px&quot;&gt;R6&lt;/font&gt;" style="pointerEvents=1;verticalLabelPosition=bottom;shadow=0;dashed=0;align=center;html=1;verticalAlign=top;shape=mxgraph.electrical.resistors.resistor_2;rotation=-90;fontColor=#FFFFFF;labelBackgroundColor=none;labelBorderColor=none;fillColor=none;strokeColor=#FFFFFF;" vertex="1" parent="44">
                    <mxGeometry x="360" y="40" width="100" height="20" as="geometry"/>
                </mxCell>
                <mxCell id="42" value="&lt;font style=&quot;font-size: 14px&quot;&gt;R6&lt;/font&gt;" style="pointerEvents=1;verticalLabelPosition=bottom;shadow=0;dashed=0;align=center;html=1;verticalAlign=top;shape=mxgraph.electrical.resistors.resistor_2;rotation=-90;fontColor=#FFFFFF;labelBackgroundColor=none;labelBorderColor=none;fillColor=none;strokeColor=#FFFFFF;" vertex="1" parent="44">
                    <mxGeometry x="440" y="40" width="100" height="20" as="geometry"/>
                </mxCell>
                <mxCell id="43" value="&lt;font style=&quot;font-size: 14px&quot;&gt;R6&lt;/font&gt;" style="pointerEvents=1;verticalLabelPosition=bottom;shadow=0;dashed=0;align=center;html=1;verticalAlign=top;shape=mxgraph.electrical.resistors.resistor_2;rotation=-90;fontColor=#FFFFFF;labelBackgroundColor=none;labelBorderColor=none;fillColor=none;strokeColor=#FFFFFF;" vertex="1" parent="44">
                    <mxGeometry x="520" y="40" width="100" height="20" as="geometry"/>
                </mxCell>
                <mxCell id="46" style="edgeStyle=orthogonalEdgeStyle;rounded=0;orthogonalLoop=1;jettySize=auto;html=1;exitX=1;exitY=0.57;exitDx=0;exitDy=0;exitPerimeter=0;endArrow=none;endFill=0;entryX=0.5;entryY=0;entryDx=0;entryDy=0;entryPerimeter=0;fontColor=#FFFFFF;labelBackgroundColor=none;labelBorderColor=none;strokeColor=#FFFFFF;" edge="1" parent="1" source="8" target="49">
                    <mxGeometry relative="1" as="geometry">
                        <mxPoint x="549.5714285714289" y="110" as="targetPoint"/>
                    </mxGeometry>
                </mxCell>
                <mxCell id="49" value="" style="pointerEvents=1;verticalLabelPosition=bottom;shadow=0;dashed=0;align=center;html=1;verticalAlign=top;shape=mxgraph.electrical.signal_sources.signal_ground;rotation=-180;fontColor=#FFFFFF;labelBackgroundColor=none;labelBorderColor=none;strokeColor=#FFFFFF;fillColor=none;" vertex="1" parent="1">
                    <mxGeometry x="527" y="75" width="45" height="30" as="geometry"/>
                </mxCell>
                <mxCell id="52" style="edgeStyle=orthogonalEdgeStyle;rounded=0;orthogonalLoop=1;jettySize=auto;html=1;exitX=1;exitY=0.57;exitDx=0;exitDy=0;exitPerimeter=0;entryX=0.5;entryY=0;entryDx=0;entryDy=0;entryPerimeter=0;endArrow=none;endFill=0;fontColor=#FFFFFF;labelBackgroundColor=none;labelBorderColor=none;strokeColor=#FFFFFF;" edge="1" parent="1" source="29" target="49">
                    <mxGeometry relative="1" as="geometry"/>
                </mxCell>
                <mxCell id="53" style="edgeStyle=orthogonalEdgeStyle;rounded=0;orthogonalLoop=1;jettySize=auto;html=1;exitX=1;exitY=0.57;exitDx=0;exitDy=0;exitPerimeter=0;entryX=0.5;entryY=0;entryDx=0;entryDy=0;entryPerimeter=0;endArrow=none;endFill=0;fontColor=#FFFFFF;labelBackgroundColor=none;labelBorderColor=none;strokeColor=#FFFFFF;" edge="1" parent="1" source="27" target="49">
                    <mxGeometry relative="1" as="geometry"/>
                </mxCell>
                <mxCell id="54" style="edgeStyle=orthogonalEdgeStyle;rounded=0;orthogonalLoop=1;jettySize=auto;html=1;exitX=1;exitY=0.57;exitDx=0;exitDy=0;exitPerimeter=0;entryX=0.5;entryY=0;entryDx=0;entryDy=0;entryPerimeter=0;endArrow=none;endFill=0;fontColor=#FFFFFF;labelBackgroundColor=none;labelBorderColor=none;strokeColor=#FFFFFF;" edge="1" parent="1" source="28" target="49">
                    <mxGeometry relative="1" as="geometry"/>
                </mxCell>
                <mxCell id="56" style="edgeStyle=orthogonalEdgeStyle;rounded=0;orthogonalLoop=1;jettySize=auto;html=1;exitX=1;exitY=0.57;exitDx=0;exitDy=0;exitPerimeter=0;entryX=0.5;entryY=0;entryDx=0;entryDy=0;entryPerimeter=0;endArrow=none;endFill=0;fontColor=#FFFFFF;labelBackgroundColor=none;labelBorderColor=none;strokeColor=#FFFFFF;" edge="1" parent="1" source="33" target="49">
                    <mxGeometry relative="1" as="geometry"/>
                </mxCell>
                <mxCell id="57" style="edgeStyle=orthogonalEdgeStyle;rounded=0;orthogonalLoop=1;jettySize=auto;html=1;exitX=1;exitY=0.57;exitDx=0;exitDy=0;exitPerimeter=0;entryX=0.5;entryY=0;entryDx=0;entryDy=0;entryPerimeter=0;endArrow=none;endFill=0;fontColor=#FFFFFF;labelBackgroundColor=none;labelBorderColor=none;strokeColor=#FFFFFF;" edge="1" parent="1" source="32" target="49">
                    <mxGeometry relative="1" as="geometry"/>
                </mxCell>
                <mxCell id="58" style="edgeStyle=orthogonalEdgeStyle;rounded=0;orthogonalLoop=1;jettySize=auto;html=1;exitX=1;exitY=0.57;exitDx=0;exitDy=0;exitPerimeter=0;entryX=0.5;entryY=0;entryDx=0;entryDy=0;entryPerimeter=0;endArrow=none;endFill=0;fontColor=#FFFFFF;labelBackgroundColor=none;labelBorderColor=none;strokeColor=#FFFFFF;" edge="1" parent="1" source="31" target="49">
                    <mxGeometry relative="1" as="geometry"/>
                </mxCell>
                <mxCell id="59" style="edgeStyle=orthogonalEdgeStyle;rounded=0;orthogonalLoop=1;jettySize=auto;html=1;exitX=1;exitY=0.57;exitDx=0;exitDy=0;exitPerimeter=0;entryX=0.5;entryY=0;entryDx=0;entryDy=0;entryPerimeter=0;endArrow=none;endFill=0;fontColor=#FFFFFF;labelBackgroundColor=none;labelBorderColor=none;strokeColor=#FFFFFF;" edge="1" parent="1" source="30" target="49">
                    <mxGeometry relative="1" as="geometry"/>
                </mxCell>
                <mxCell id="60" style="edgeStyle=orthogonalEdgeStyle;rounded=0;orthogonalLoop=1;jettySize=auto;html=1;exitX=0;exitY=0.5;exitDx=0;exitDy=0;exitPerimeter=0;entryX=0;entryY=0;entryDx=150;entryDy=400;entryPerimeter=0;endArrow=none;endFill=0;fontColor=#FFFFFF;labelBackgroundColor=none;labelBorderColor=none;strokeColor=#FFFFFF;" edge="1" parent="1" source="43" target="9">
                    <mxGeometry relative="1" as="geometry">
                        <Array as="points">
                            <mxPoint x="830" y="445"/>
                            <mxPoint x="625" y="445"/>
                        </Array>
                    </mxGeometry>
                </mxCell>
                <mxCell id="61" style="edgeStyle=orthogonalEdgeStyle;rounded=0;orthogonalLoop=1;jettySize=auto;html=1;exitX=0;exitY=0.5;exitDx=0;exitDy=0;exitPerimeter=0;entryX=0;entryY=0;entryDx=150;entryDy=360;entryPerimeter=0;endArrow=none;endFill=0;fontColor=#FFFFFF;labelBackgroundColor=none;labelBorderColor=none;strokeColor=#FFFFFF;" edge="1" parent="1" source="42" target="9">
                    <mxGeometry relative="1" as="geometry">
                        <Array as="points">
                            <mxPoint x="750" y="435"/>
                            <mxPoint x="585" y="435"/>
                        </Array>
                    </mxGeometry>
                </mxCell>
                <mxCell id="62" style="edgeStyle=orthogonalEdgeStyle;rounded=0;orthogonalLoop=1;jettySize=auto;html=1;exitX=0;exitY=0.5;exitDx=0;exitDy=0;exitPerimeter=0;entryX=0;entryY=0;entryDx=150;entryDy=320;entryPerimeter=0;endArrow=none;endFill=0;fontColor=#FFFFFF;labelBackgroundColor=none;labelBorderColor=none;strokeColor=#FFFFFF;" edge="1" parent="1" source="41" target="9">
                    <mxGeometry relative="1" as="geometry">
                        <Array as="points">
                            <mxPoint x="670" y="425"/>
                            <mxPoint x="545" y="425"/>
                        </Array>
                    </mxGeometry>
                </mxCell>
                <mxCell id="63" style="edgeStyle=orthogonalEdgeStyle;rounded=0;orthogonalLoop=1;jettySize=auto;html=1;exitX=0;exitY=0.5;exitDx=0;exitDy=0;exitPerimeter=0;entryX=0;entryY=0;entryDx=150;entryDy=280;entryPerimeter=0;endArrow=none;endFill=0;fontColor=#FFFFFF;labelBackgroundColor=none;labelBorderColor=none;strokeColor=#FFFFFF;" edge="1" parent="1" source="40" target="9">
                    <mxGeometry relative="1" as="geometry">
                        <Array as="points">
                            <mxPoint x="590" y="415"/>
                            <mxPoint x="505" y="415"/>
                        </Array>
                    </mxGeometry>
                </mxCell>
                <mxCell id="64" style="edgeStyle=orthogonalEdgeStyle;rounded=0;orthogonalLoop=1;jettySize=auto;html=1;exitX=0;exitY=0.5;exitDx=0;exitDy=0;exitPerimeter=0;entryX=0;entryY=0;entryDx=150;entryDy=240;entryPerimeter=0;endArrow=none;endFill=0;fontColor=#FFFFFF;labelBackgroundColor=none;labelBorderColor=none;strokeColor=#FFFFFF;" edge="1" parent="1" source="39" target="9">
                    <mxGeometry relative="1" as="geometry">
                        <Array as="points">
                            <mxPoint x="465" y="405"/>
                        </Array>
                    </mxGeometry>
                </mxCell>
                <mxCell id="65" style="edgeStyle=orthogonalEdgeStyle;rounded=0;orthogonalLoop=1;jettySize=auto;html=1;exitX=0;exitY=0.5;exitDx=0;exitDy=0;exitPerimeter=0;entryX=0;entryY=0;entryDx=150;entryDy=200;entryPerimeter=0;endArrow=none;endFill=0;fontColor=#FFFFFF;labelBackgroundColor=none;labelBorderColor=none;strokeColor=#FFFFFF;" edge="1" parent="1" source="38" target="9">
                    <mxGeometry relative="1" as="geometry">
                        <Array as="points">
                            <mxPoint x="425" y="405"/>
                        </Array>
                    </mxGeometry>
                </mxCell>
                <mxCell id="66" style="edgeStyle=orthogonalEdgeStyle;rounded=0;orthogonalLoop=1;jettySize=auto;html=1;exitX=0;exitY=0.5;exitDx=0;exitDy=0;exitPerimeter=0;entryX=0;entryY=0;entryDx=150;entryDy=120;entryPerimeter=0;endArrow=none;endFill=0;fontColor=#FFFFFF;labelBackgroundColor=none;labelBorderColor=none;strokeColor=#FFFFFF;" edge="1" parent="1" source="36" target="9">
                    <mxGeometry relative="1" as="geometry"/>
                </mxCell>
                <mxCell id="67" style="edgeStyle=orthogonalEdgeStyle;rounded=0;orthogonalLoop=1;jettySize=auto;html=1;exitX=0;exitY=0.5;exitDx=0;exitDy=0;exitPerimeter=0;entryX=0;entryY=0;entryDx=150;entryDy=160;entryPerimeter=0;endArrow=none;endFill=0;fontColor=#FFFFFF;labelBackgroundColor=none;labelBorderColor=none;strokeColor=#FFFFFF;" edge="1" parent="1" source="35" target="9">
                    <mxGeometry relative="1" as="geometry">
                        <Array as="points">
                            <mxPoint x="350" y="425"/>
                            <mxPoint x="385" y="425"/>
                        </Array>
                    </mxGeometry>
                </mxCell>
                <mxCell id="68" style="edgeStyle=orthogonalEdgeStyle;rounded=0;orthogonalLoop=1;jettySize=auto;html=1;exitX=1;exitY=0.5;exitDx=0;exitDy=0;exitPerimeter=0;entryX=0;entryY=0.57;entryDx=0;entryDy=0;entryPerimeter=0;endArrow=none;endFill=0;fontColor=#FFFFFF;labelBackgroundColor=none;labelBorderColor=none;strokeColor=#FFFFFF;" edge="1" parent="1" source="36" target="8">
                    <mxGeometry relative="1" as="geometry"/>
                </mxCell>
                <mxCell id="69" style="edgeStyle=orthogonalEdgeStyle;rounded=0;orthogonalLoop=1;jettySize=auto;html=1;exitX=1;exitY=0.5;exitDx=0;exitDy=0;exitPerimeter=0;entryX=0;entryY=0.57;entryDx=0;entryDy=0;entryPerimeter=0;endArrow=none;endFill=0;fontColor=#FFFFFF;labelBackgroundColor=none;labelBorderColor=none;strokeColor=#FFFFFF;" edge="1" parent="1" source="35" target="27">
                    <mxGeometry relative="1" as="geometry"/>
                </mxCell>
                <mxCell id="70" style="edgeStyle=orthogonalEdgeStyle;rounded=0;orthogonalLoop=1;jettySize=auto;html=1;exitX=1;exitY=0.5;exitDx=0;exitDy=0;exitPerimeter=0;entryX=0;entryY=0.57;entryDx=0;entryDy=0;entryPerimeter=0;endArrow=none;endFill=0;fontColor=#FFFFFF;labelBackgroundColor=none;labelBorderColor=none;strokeColor=#FFFFFF;" edge="1" parent="1" source="38" target="28">
                    <mxGeometry relative="1" as="geometry"/>
                </mxCell>
                <mxCell id="71" style="edgeStyle=orthogonalEdgeStyle;rounded=0;orthogonalLoop=1;jettySize=auto;html=1;exitX=1;exitY=0.5;exitDx=0;exitDy=0;exitPerimeter=0;entryX=0;entryY=0.57;entryDx=0;entryDy=0;entryPerimeter=0;endArrow=none;endFill=0;fontColor=#FFFFFF;labelBackgroundColor=none;labelBorderColor=none;strokeColor=#FFFFFF;" edge="1" parent="1" source="39" target="29">
                    <mxGeometry relative="1" as="geometry"/>
                </mxCell>
                <mxCell id="72" style="edgeStyle=orthogonalEdgeStyle;rounded=0;orthogonalLoop=1;jettySize=auto;html=1;exitX=1;exitY=0.5;exitDx=0;exitDy=0;exitPerimeter=0;entryX=0;entryY=0.57;entryDx=0;entryDy=0;entryPerimeter=0;endArrow=none;endFill=0;fontColor=#FFFFFF;labelBackgroundColor=none;labelBorderColor=none;strokeColor=#FFFFFF;" edge="1" parent="1" source="40" target="30">
                    <mxGeometry relative="1" as="geometry"/>
                </mxCell>
                <mxCell id="73" style="edgeStyle=orthogonalEdgeStyle;rounded=0;orthogonalLoop=1;jettySize=auto;html=1;exitX=1;exitY=0.5;exitDx=0;exitDy=0;exitPerimeter=0;entryX=0;entryY=0.57;entryDx=0;entryDy=0;entryPerimeter=0;endArrow=none;endFill=0;fontColor=#FFFFFF;labelBackgroundColor=none;labelBorderColor=none;strokeColor=#FFFFFF;" edge="1" parent="1" source="41" target="31">
                    <mxGeometry relative="1" as="geometry"/>
                </mxCell>
                <mxCell id="74" style="edgeStyle=orthogonalEdgeStyle;rounded=0;orthogonalLoop=1;jettySize=auto;html=1;exitX=1;exitY=0.5;exitDx=0;exitDy=0;exitPerimeter=0;entryX=0;entryY=0.57;entryDx=0;entryDy=0;entryPerimeter=0;endArrow=none;endFill=0;fontColor=#FFFFFF;labelBackgroundColor=none;labelBorderColor=none;strokeColor=#FFFFFF;" edge="1" parent="1" source="42" target="32">
                    <mxGeometry relative="1" as="geometry"/>
                </mxCell>
                <mxCell id="75" style="edgeStyle=orthogonalEdgeStyle;rounded=0;orthogonalLoop=1;jettySize=auto;html=1;exitX=1;exitY=0.5;exitDx=0;exitDy=0;exitPerimeter=0;entryX=0;entryY=0.57;entryDx=0;entryDy=0;entryPerimeter=0;endArrow=none;endFill=0;fontColor=#FFFFFF;labelBackgroundColor=none;labelBorderColor=none;strokeColor=#FFFFFF;" edge="1" parent="1" source="43" target="33">
                    <mxGeometry relative="1" as="geometry"/>
                </mxCell>
            </root>
        </mxGraphModel>
    </diagram>
</mxfile>